<?xml version="1.0" encoding="UTF-8"?>
<svg xmlns="http://www.w3.org/2000/svg" xmlns:xlink="http://www.w3.org/1999/xlink" width="20px" height="20px" viewBox="0 0 20 20" version="1.1">
<g id="surface1">
<path style=" stroke:none;fill-rule:nonzero;fill:rgb(90.588235%,90.980392%,90.980392%);fill-opacity:1;" d="M 4.753906 3.394531 C 6.136719 2.25 8.003906 1.667969 10 1.667969 C 11.996094 1.667969 13.863281 2.25 15.246094 3.394531 C 16.644531 4.550781 17.5 6.246094 17.5 8.332031 L 17.5 9.167969 L 2.5 9.167969 L 2.5 8.332031 C 2.5 6.246094 3.355469 4.550781 4.753906 3.394531 M 4.226562 7.5 L 15.773438 7.5 C 15.589844 6.308594 15.011719 5.363281 14.183594 4.679688 C 13.152344 3.824219 11.6875 3.332031 10 3.332031 C 8.3125 3.332031 6.847656 3.824219 5.816406 4.679688 C 4.988281 5.363281 4.410156 6.308594 4.230469 7.5 M 5 9.832031 L 7.5 11.5 L 10 9.832031 L 12.5 11.5 L 15 9.832031 L 18.65625 12.269531 L 17.730469 13.65625 L 15 11.835938 L 12.5 13.5 L 10 11.835938 L 7.5 13.5 L 5 11.835938 L 2.269531 13.65625 L 1.34375 12.269531 Z M 2.5 14.167969 L 17.5 14.167969 L 17.5 15 C 17.5 17.300781 15.632812 19.167969 13.332031 19.167969 L 6.667969 19.167969 C 4.367188 19.167969 2.5 17.300781 2.5 15 Z M 4.308594 15.832031 C 4.660156 16.832031 5.605469 17.5 6.667969 17.5 L 13.332031 17.5 C 14.394531 17.5 15.339844 16.832031 15.691406 15.832031 Z M 4.308594 15.832031 "/>
</g>
</svg>
